<?xml version="1.0" encoding="UTF-8"?>
<svg width="254.87" height="81.624" version="1.1" viewBox="0 -1853 14082 4509.9" xmlns="http://www.w3.org/2000/svg" xmlns:cc="http://creativecommons.org/ns#" xmlns:dc="http://purl.org/dc/elements/1.1/" xmlns:rdf="http://www.w3.org/1999/02/22-rdf-syntax-ns#" xmlns:xlink="http://www.w3.org/1999/xlink">
<metadata>
<rdf:RDF>
<cc:Work rdf:about="">
<dc:format>image/svg+xml</dc:format>
<dc:type rdf:resource="http://purl.org/dc/dcmitype/StillImage"/>
<dc:title/>
</cc:Work>
</rdf:RDF>
</metadata>
<defs>
<path id="u" d="m184-11q-68 0-110 45t-43 113q0 100 73 186t170 97q1 1 140 1h138q1-1 3-2t4-2 3-2 3-3 2-2 2-4 1-4 1-5 1-6q0-44-65-44-7 0-17 0t-14 1h-60l5-10q18-38 18-85 0-110-80-192t-175-82zm177 289q0 80-85 80-124 0-161-174-1-4-1-6-8-37-8-61 0-50 25-70t57-21q54 0 99 47 29 30 47 80t22 80 5 45z"/>
<path id="t" d="m56 347q0 13 14 20h637q15-8 15-20 0-11-14-19l-318-1h-318q-16 5-16 20zm0-194q0 15 16 20h636q14-10 14-20 0-13-15-20h-637q-14 7-14 20z"/>
<path id="ad" d="m702 589q4 12 16 16h343q15-8 15-20 0-13-15-20h-319v-565q-8-14-18-14h-4q-12 0-18 14z"/>
<path id="ab" d="m742-871q-2-2-5-5t-4-4-3-2-6-2-10-1h-12l-480 1454-42-85q-42-85-43-85-6 5-13 13l-13 13 154 311 437-1322v754l1 754q10 13 19 13 12 0 20-15z"/>
<path id="ac" d="m722-14h-2q-12 0-18 14v306l1 306q10 13 19 13 12 0 20-15v-610q-8-14-18-14z"/>
<path id="s" d="m213 578-13-5q-14-5-40-10t-58-7h-19v46h19q47 2 87 15t56 24 28 22q2 3 12 3 9 0 17-6v-299l1-300q7-7 12-9t24-4 62-2h26v-46h-11q-21 3-159 3-136 0-157-3h-12v46h26q22 0 38 0t25 1 16 3 8 2 6 5 6 4z"/>
<path id="q" d="m21 287q1 6 3 16t12 38 20 47 33 37 46 17q36 0 60-18t30-34 6-21q0-2 1-2l11 11q61 64 139 64 54 0 87-27t34-79-38-157-38-127q0-26 17-26 6 0 9 1 29 5 52 38t35 80q2 8 20 8 20 0 20-8 0-1-4-15-8-29-22-57t-46-56-69-27q-47 0-68 27t-21 56q0 19 36 120t37 152q0 59-44 59h-5q-86 0-145-101l-7-12-33-134q-33-131-38-141-13-27-43-27-13 0-21 6t-11 12-2 10q0 13 38 163t40 163q1 5 1 23 0 39-24 39-38 0-63-100-6-20-6-21-2-6-19-6h-14q-6 6-6 9z"/>
<path id="v" d="m60 948q3 2 605 2h602l58-135q59-138 63-146h-40l-7 14q-21 41-56 78-50 48-111 77t-141 43-151 17-183 4h-448l8-11q463-633 465-639 1-2 0-6-3-3-264-302l-264-300q0-1 211-1 52 0 141 0t128-1q136 0 220 5t167 21 141 49 103 87q21 26 41 72h40q0-1-7-21t-25-65-31-84l-58-155-601-1q-602 0-605 2-6 2-6 9 0 2 2 6l533 610q0 1-33 45t-105 144-130 178l-266 365-1 15q0 21 5 24z"/>
<path id="p" d="m184 600q0 24 19 42t44 19q18 0 30-12t13-30q0-23-20-42t-44-20q-15 0-28 10t-14 33zm-163-313q0 8 9 31t24 51 44 51 60 22q39 0 65-23t27-62q0-17-14-56t-40-105-42-113q-5-22-5-32 0-25 17-25 9 0 19 3t23 14 27 35 25 59q3 12 5 14t17 2q20 0 20-10 0-8-9-31t-25-51-45-50-62-22q-32 0-59 21t-28 64q0 17 5 32t43 114q38 101 44 121t7 39q0 24-17 24h-2q-30 0-55-33t-38-84q-1-1-2-3t-1-3-2-2-3-1-4 0-8 0h-14q-6 6-6 9z"/>
<path id="x" d="m94 250q0 69 10 131t23 107 37 88 38 67 42 52 33 34 25 21h17q14 0 14-9 0-3-17-21t-41-53-49-86-42-138-17-193 17-192 41-139 49-86 42-53 17-21q0-9-15-9h-16l-28 24q-94 85-137 212t-43 264z"/>
<path id="r" d="m52 289q7 42 54 97t116 56q35 0 64-18t43-45q42 63 101 63 37 0 64-22t28-59q0-29-14-47t-27-22-23-4q-19 0-31 11t-12 29q0 46 50 63-11 13-40 13-13 0-19-2-38-16-56-66-60-221-60-258 0-28 16-40t35-12q37 0 73 33t49 81q3 10 6 11t16 2h4q15 0 15-8 0-1-2-11-16-57-62-101t-107-44q-70 0-106 63-41-62-94-62h-6q-49 0-70 26t-22 55q0 32 19 52t45 20q43 0 43-42 0-20-12-35t-23-20-13-5l-3-1q0-1 6-4t16-7 19-3q36 0 62 45 9 16 23 68t28 108 16 66q5 27 5 39 0 28-15 40t-34 12q-40 0-75-32t-49-82q-2-9-5-10t-16-2h-14q-6 6-6 11z"/>
<path id="w" d="m84 237t0 13 14 20h581q15-8 15-20t-15-20h-581q-14 7-14 20z"/>
<path id="aa" d="m69 544v46h361v-46z"/>
<path id="y" d="m60 749 4 1q5 0 10 0h12l28-24q94-85 137-212t43-264q0-68-10-131t-23-107-37-88-38-67-41-51-32-33-23-19q-3-3-4-4h-12q-8 0-11 0t-5 3-3 9q1 1 11 13 155 161 155 475t-155 475q-10 12-11 13 0 8 5 11z"/>
<path id="z" d="m109 429q-27 0-43 18t-16 44q0 71 53 123t132 52q91 0 152-56t62-145q0-43-20-82t-48-68-80-74q-36-31-100-92l-59-56 76-1q157 0 167 5 7 2 24 89v3h40v-3q-1-3-13-91t-15-92v-3h-371v31q0 7 6 15t30 35q29 32 50 56 9 10 34 37t34 37 29 33 28 34 23 30 21 32 15 29 13 32 7 30 3 33q0 63-34 109t-97 46q-33 0-58-17t-35-33-10-19q0-1 5-1 18 0 37-14t19-46q0-25-16-42t-45-18z"/>
</defs>
<g transform="matrix(1 0 0 -1 1097.3 -60)" fill="currentColor" stroke="currentColor" stroke-width="0">
<g data-mml-node="math">
<g data-mml-node="mi">
<use width="100%" height="100%" xlink:href="#u"/>
</g>
<g transform="translate(848.8)" data-mml-node="mo">
<use width="100%" height="100%" xlink:href="#t"/>
</g>
<g transform="translate(1904.6)" data-mml-node="msqrt">
<g transform="translate(1056)">
<g data-mml-node="mfrac">
<g transform="translate(270,676)" data-mml-node="mn">
<use width="100%" height="100%" xlink:href="#s"/>
</g>
<g transform="translate(220,-686)" data-mml-node="mi">
<use width="100%" height="100%" xlink:href="#q"/>
</g>
<rect x="120" y="220" width="800" height="60"/>
</g>
<g transform="translate(1206.7)" data-mml-node="munderover">
<g data-mml-node="mo">
<use width="100%" height="100%" xlink:href="#v"/>
</g>
<g transform="matrix(.707 0 0 .707 148.2 -1087.9)" data-mml-node="TeXAtom">
<g data-mml-node="mi">
<use width="100%" height="100%" xlink:href="#p"/>
</g>
<g transform="translate(345)" data-mml-node="mo">
<use width="100%" height="100%" xlink:href="#t"/>
</g>
<g transform="translate(1123)" data-mml-node="mn">
<use width="100%" height="100%" xlink:href="#s"/>
</g>
</g>
<g transform="matrix(.707 0 0 .707 509.9 1150)" data-mml-node="TeXAtom">
<g data-mml-node="mi">
<use width="100%" height="100%" xlink:href="#q"/>
</g>
</g>
</g>
<g transform="translate(2650.7)" data-mml-node="mo">
<use width="100%" height="100%" xlink:href="#x"/>
</g>
<g transform="translate(3039.7)" data-mml-node="msub">
<g data-mml-node="mi">
<use width="100%" height="100%" xlink:href="#r"/>
</g>
<g transform="matrix(.707 0 0 .707 572 -150)" data-mml-node="mi">
<use width="100%" height="100%" xlink:href="#p"/>
</g>
</g>
<g transform="translate(4127.8)" data-mml-node="mo">
<use width="100%" height="100%" xlink:href="#w"/>
</g>
<g transform="translate(5128.1)" data-mml-node="TeXAtom">
<g data-mml-node="mover">
<g data-mml-node="mi">
<use width="100%" height="100%" xlink:href="#r"/>
</g>
<g transform="translate(63.8,-42)" data-mml-node="mo">
<use width="100%" height="100%" xlink:href="#aa"/>
</g>
</g>
</g>
<g transform="translate(5700.1)" data-mml-node="msup">
<g data-mml-node="mo">
<use width="100%" height="100%" xlink:href="#y"/>
</g>
<g transform="matrix(.707 0 0 .707 389 413)" data-mml-node="mn">
<use width="100%" height="100%" xlink:href="#z"/>
</g>
</g>
</g>
<g data-mml-node="mo">
<use transform="translate(0,1188)" width="100%" height="100%" xlink:href="#ad"/>
<use transform="translate(0,-360.9)" width="100%" height="100%" xlink:href="#ab"/>
<svg y="474.1" width="1056" height="800" version="1.1" viewBox="0 173.7 1056 800">
<use transform="scale(1,1.878)" width="100%" height="100%" xlink:href="#ac"/>
</svg>
</g>
<rect x="1056" y="1733" width="6492.6" height="60"/>
</g>
</g>
</g>
<flowRoot transform="translate(1097.3 -60)" fill="#000000" font-family="sans-serif" font-size="13.333px" letter-spacing="0px" word-spacing="0px" style="line-height:1.25" xml:space="preserve"><flowRegion><rect x="40.454" y="82.862" width="36.546" height="14.266"/></flowRegion><flowPara/></flowRoot>
<text x="-11.592664" y="2643.5459" fill="#018786" font-family="sans-serif" font-size="884.04px" letter-spacing="0px" stroke-width="55.252" word-spacing="0px" style="font-feature-settings:normal;font-variant-caps:normal;font-variant-ligatures:normal;font-variant-numeric:normal;line-height:1.25" xml:space="preserve"><tspan x="-11.592664" y="2643.5459" fill="#018786" font-family="sans-serif" font-size="884.04px" stroke-width="55.252" style="font-feature-settings:normal;font-variant-caps:normal;font-variant-ligatures:normal;font-variant-numeric:normal">Number of values</tspan></text>
<text x="9666.4248" y="2028.3389" fill="#018786" font-family="sans-serif" font-size="884.04px" letter-spacing="0px" stroke-width="55.252" word-spacing="0px" style="font-feature-settings:normal;font-variant-caps:normal;font-variant-ligatures:normal;font-variant-numeric:normal;line-height:1.25" xml:space="preserve"><tspan x="9666.4248" y="2028.3389" fill="#018786" font-family="sans-serif" font-size="884.04px" stroke-width="55.252" style="font-feature-settings:normal;font-variant-caps:normal;font-variant-ligatures:normal;font-variant-numeric:normal">Mean</tspan></text>
<path d="m4444.7 891.66-445.38 953.15" fill="none" stroke="#018786" stroke-miterlimit="3.6" stroke-width="55.252"/>
<path d="m9486 143.29 936.14 1047" fill="none" stroke="#018786" stroke-miterlimit="3.6" stroke-width="55.252"/>
</svg>
